HIERARCHY
ROOT Hips
{
    OFFSET 0.000000 0.000000 0.000000
    CHANNELS 6 Xposition Yposition Zposition Zrotation Xrotation Yrotation
    JOINT Spine
    {
        OFFSET -0.000000 14.517291 0.000000
        CHANNELS 3 Zrotation Xrotation Yrotation
        JOINT Spine1
        {
            OFFSET -0.000000 37.558300 0.000000
            CHANNELS 3 Zrotation Xrotation Yrotation
            JOINT Neck
            {
                OFFSET -0.000000 37.404057 3.400369
                CHANNELS 3 Zrotation Xrotation Yrotation
                JOINT Head
                {
                    OFFSET -0.000000 24.785618 -3.540803
                    CHANNELS 3 Zrotation Xrotation Yrotation
                    End Site
                    {
                        OFFSET -0.000000 35.408028 0.000000
                    }
                }
            }
            JOINT LeftShoulder
            {
                OFFSET 6.992933 33.973492 -0.192664
                CHANNELS 3 Zrotation Xrotation Yrotation
                JOINT LeftArm
                {
                    OFFSET 21.527611 0.000000 0.000000
                    CHANNELS 3 Zrotation Xrotation Yrotation
                    JOINT LeftForeArm
                    {
                        OFFSET 56.353916 0.000000 0.000000
                        CHANNELS 3 Zrotation Xrotation Yrotation
                        JOINT LeftHand
                        {
                            OFFSET 47.774071 0.000000 0.000000
                            CHANNELS 3 Zrotation Xrotation Yrotation
                            End Site
                            {
                                OFFSET 26.556021 0.000000 0.000000
                            }
                        }
                    }
                }
            }
            JOINT RightShoulder
            {
                OFFSET -7.065357 33.973492 -0.192664
                CHANNELS 3 Zrotation Xrotation Yrotation
                JOINT RightArm
                {
                    OFFSET -21.527611 0.000000 0.000000
                    CHANNELS 3 Zrotation Xrotation Yrotation
                    JOINT RightForeArm
                    {
                        OFFSET -56.353916 0.000000 0.000000
                        CHANNELS 3 Zrotation Xrotation Yrotation
                        JOINT RightHand
                        {
                            OFFSET -47.774071 0.000000 0.000000
                            CHANNELS 3 Zrotation Xrotation Yrotation
                            End Site
                            {
                                OFFSET -26.556021 0.000000 0.000000
                            }
                        }
                    }
                }
            }
        }
    }
    JOINT LeftUpLeg
    {
        OFFSET 17.704014 0.000000 0.000000
        CHANNELS 3 Zrotation Xrotation Yrotation
        JOINT LeftLeg
        {
            OFFSET -0.000000 -81.181816 0.000000
            CHANNELS 3 Zrotation Xrotation Yrotation
            JOINT LeftFoot
            {
                OFFSET -0.000000 -62.821102 0.000000
                CHANNELS 3 Zrotation Xrotation Yrotation
                JOINT LeftToeBase
                {
                    OFFSET -0.000000 -11.507608 26.556021
                    CHANNELS 3 Zrotation Xrotation Yrotation
                    End Site
                    {
                        OFFSET -0.000000 0.000000 7.081605
                    }
                }
            }
        }
    }
    JOINT RightUpLeg
    {
        OFFSET -17.704014 0.000000 0.000000
        CHANNELS 3 Zrotation Xrotation Yrotation
        JOINT RightLeg
        {
            OFFSET -0.000000 -81.181816 0.000000
            CHANNELS 3 Zrotation Xrotation Yrotation
            JOINT RightFoot
            {
                OFFSET -0.000000 -62.821102 0.000000
                CHANNELS 3 Zrotation Xrotation Yrotation
                JOINT RightToeBase
                {
                    OFFSET -0.000000 -11.507608 26.556021
                    CHANNELS 3 Zrotation Xrotation Yrotation
                    End Site
                    {
                        OFFSET -0.000000 0.000000 7.081605
                    }
                }
            }
        }
    }
}
MOTION
Frames:    8
Frame Time:    0.008333
-4.871011    157.274872    -9.504614    0.322798    -4.186887    -31.189388    3.066892    0.101078    3.169149    -2.572734    2.260673    1.106808    14.756731    5.875473    12.769405    -8.312438    -1.607231    10.582974    -0.842816    9.230291    -11.273934    -37.532784    11.264525    -39.632679    35.542747    -42.892998    -43.837727    -21.896170    -25.231203    -33.230919    -4.533558    6.628747    -2.902946    36.975018    10.501249    71.835327    3.191910    -12.826035    95.674706    9.731375    -14.656273    19.115173    8.781770    -19.064468    -23.697760    -7.535251    15.801489    -26.144030    -14.972655    -3.806541    35.897442    0.000000    0.000000    0.000000    -9.942032    4.412806    -6.479341    6.144213    27.849081    -3.225489    1.509496    -25.573685    -13.523332    0.000000    0.000000    0.000000    
-4.866856    157.276993    -9.501778    0.314355    -4.186533    -31.219103    3.075426    0.092180    3.186811    -2.572978    2.262923    1.112679    14.740586    5.875261    12.767994    -8.308140    -1.601529    10.584126    -0.861068    9.239937    -11.242923    -37.528648    11.275805    -39.617065    35.528912    -42.902458    -43.862759    -21.915743    -25.234148    -33.232704    -4.546469    6.642194    -2.899999    36.988224    10.526686    71.844025    3.222936    -12.806001    95.696114    9.740056    -14.669016    19.121672    8.790328    -19.064859    -23.706009    -7.540636    15.827950    -26.128902    -14.957344    -3.818690    35.905575    0.000000    0.000000    0.000000    -9.941910    4.416446    -6.439258    6.164292    27.826853    -3.243865    1.513652    -25.566763    -13.536540    0.000000    0.000000    0.000000    
-4.865989    157.278061    -9.496346    0.302245    -4.188361    -31.250248    3.084461    0.077557    3.205746    -2.583444    2.281445    1.119507    14.755381    5.884665    12.769371    -8.333740    -1.620982    10.580043    -0.851358    9.239523    -11.229312    -37.566879    11.256972    -39.583920    35.478516    -42.892887    -43.932434    -21.898438    -25.227745    -33.212944    -4.543374    6.645674    -2.900360    36.999546    10.546136    71.850616    3.245091    -12.777545    95.707970    9.725370    -14.668695    19.108402    8.803992    -19.056913    -23.701624    -7.551904    15.846045    -26.098194    -14.941032    -3.824799    35.897724    0.000000    0.000000    0.000000    -9.938047    4.427446    -6.399089    6.183342    27.799730    -3.264713    1.484257    -25.559191    -13.546958    0.000000    0.000000    0.000000    
-4.862956    157.280258    -9.489225    0.286211    -4.193287    -31.286865    3.099298    0.077262    3.229349    -2.597892    2.286155    1.127767    14.769422    5.882162    12.770553    -8.352669    -1.617916    10.576843    -0.854182    9.242293    -11.214985    -37.590244    11.235632    -39.551289    35.404819    -42.883148    -44.014103    -21.856064    -25.236353    -33.178684    -4.533777    6.638446    -2.909404    37.004402    10.574776    71.849342    3.279824    -12.728440    95.726074    9.681845    -14.665541    19.106998    8.816340    -19.046701    -23.707592    -7.555557    15.872442    -26.093557    -14.933464    -3.854947    35.919300    0.000000    0.000000    0.000000    -9.939021    4.448549    -6.360342    6.206866    27.760504    -3.245368    1.452613    -25.547886    -13.572342    0.000000    0.000000    0.000000    
-4.860155    157.283325    -9.478303    0.272494    -4.199401    -31.325611    3.101791    0.069075    3.254920    -2.594666    2.297030    1.136392    14.760454    5.890662    12.766770    -8.344258    -1.632250    10.575198    -0.858580    9.239334    -11.212344    -37.637207    11.200953    -39.503429    35.321678    -42.857338    -44.106747    -21.829578    -25.222048    -33.138290    -4.533006    6.643244    -2.911871    36.994564    10.598106    71.849983    3.283528    -12.703271    95.738510    9.680362    -14.647130    19.087397    8.829478    -19.033567    -23.706554    -7.563341    15.898964    -26.086481    -14.928016    -3.883264    35.940132    0.000000    0.000000    0.000000    -9.942253    4.473899    -6.326949    6.226817    27.709724    -3.260578    1.441168    -25.534636    -13.570009    0.000000    0.000000    0.000000    
-4.853869    157.285934    -9.469179    0.256403    -4.205513    -31.363787    3.108444    0.074418    3.276502    -2.595287    2.296230    1.143593    14.769702    5.892677    12.766479    -8.362722    -1.639194    10.570883    -0.863429    9.233941    -11.195072    -37.681908    11.169033    -39.468700    35.223358    -42.833122    -44.197449    -21.783295    -25.223400    -33.091881    -4.532557    6.645575    -2.922536    36.993771    10.621221    71.861290    3.315318    -12.670926    95.751495    9.683552    -14.646498    19.122772    8.837150    -19.024637    -23.697918    -7.561475    15.936742    -26.082380    -14.913918    -3.908579    35.948223    0.000000    0.000000    0.000000    -9.945316    4.497193    -6.297783    6.247048    27.666817    -3.288460    1.425527    -25.520430    -13.545071    0.000000    0.000000    0.000000    
-4.852589    157.293976    -9.455726    0.237481    -4.207370    -31.406055    3.117184    0.060661    3.299544    -2.585293    2.313417    1.151345    14.762810    5.885237    12.765446    -8.368911    -1.630263    10.569171    -0.880712    9.225127    -11.186672    -37.714340    11.149421    -39.422855    35.157085    -42.815224    -44.260830    -21.763638    -25.221485    -33.044884    -4.547253    6.648139    -2.923793    36.995403    10.643954    71.864349    3.312378    -12.647083    95.756889    9.707277    -14.615307    19.131023    8.855623    -19.010103    -23.682659    -7.563071    15.963565    -26.073586    -14.914423    -3.932236    35.949276    0.000000    0.000000    0.000000    -9.940697    4.521353    -6.290035    6.248801    27.620211    -3.317628    1.430969    -25.505796    -13.487811    0.000000    0.000000    0.000000    
-4.841870    157.299118    -9.446554    0.233491    -4.200446    -31.446419    3.129453    0.038609    3.315273    -2.601396    2.331038    1.157160    14.776784    5.879164    12.770391    -8.381686    -1.636310    10.569734    -0.878371    9.223988    -11.157039    -37.751911    11.120528    -39.401295    35.088196    -42.792336    -44.322163    -21.759941    -25.207260    -33.016190    -4.538272    6.640073    -2.920108    36.984684    10.664344    71.869629    3.306982    -12.627352    95.761124    9.732524    -14.587035    19.118029    8.863868    -19.017742    -23.677061    -7.574327    15.992469    -26.050808    -14.887472    -3.929803    35.950562    0.000000    0.000000    0.000000    -9.951229    4.523861    -6.269788    6.262823    27.585361    -3.300298    1.411269    -25.491346    -13.478581    0.000000    0.000000    0.000000    
